PathFileType	4	(x/y/z)	S05_M20_T11
DataRate	CameraRate	NumFrames	NumMarkers	Units	OrigDataRate	OrigDataStartFrame	OrigNumFrames
240	240	10	50	mm	240	192	510
Frame#	Time	Sternum			R.Acromium			L.Acromium			Top.Head			R.ASIS			L.ASIS			R.PSIS			L.PSIS			R.Great.Tro			L.Great.Tro			R.Iliac.Crest			L.Iliac.Crest			V.Sacral			R.Thigh.Upper.Post			R.Thigh.Lower.Ant			R.Thigh.Lower.Post			R.Thigh.Upper.Ant			R.Knee.Lat			R.Knee.Med			R.Shank.Upper.Post			R.Shank.Lower.Ant			R.Shank.Lower.Post			R.Shank.Upper.Ant			R.Ankle.Lat			R.Ankle.Med			R.Heel.Upper			R.Heel.Med			R.Heel.Lat			R.Toe.Lat			R.Toe.Med			R.Toe.Tip			L.Thigh.Upper.Post			L.Thigh.Lower.Ant			L.Thigh.Lower.Post			L.Thigh.Upper.Ant			L.Knee.Lat			L.Shank.Upper.Post			L.Shank.Lower.Ant			L.Shank.Lower.Post			L.Shank.Upper.Ant			L.Ankle.Lat			L.Ankle.Med			L.Heel.Upper			L.Heel.Med			L.Heel.Lat			L.Toe.Lat			L.Toe.Med			L.Toe.Tip			Cervical.Spine			Back			
		X1	Y1	Z1	X2	Y2	Z2	X3	Y3	Z3	X4	Y4	Z4	X5	Y5	Z5	X6	Y6	Z6	X7	Y7	Z7	X8	Y8	Z8	X9	Y9	Z9	X10	Y10	Z10	X11	Y11	Z11	X12	Y12	Z12	X13	Y13	Z13	X14	Y14	Z14	X15	Y15	Z15	X16	Y16	Z16	X17	Y17	Z17	X18	Y18	Z18	X19	Y19	Z19	X20	Y20	Z20	X21	Y21	Z21	X22	Y22	Z22	X23	Y23	Z23	X24	Y24	Z24	X25	Y25	Z25	X26	Y26	Z26	X27	Y27	Z27	X28	Y28	Z28	X29	Y29	Z29	X30	Y30	Z30	X31	Y31	Z31	X32	Y32	Z32	X33	Y33	Z33	X34	Y34	Z34	X35	Y35	Z35	X36	Y36	Z36	X37	Y37	Z37	X38	Y38	Z38	X39	Y39	Z39	X40	Y40	Z40	X41	Y41	Z41	X42	Y42	Z42	X43	Y43	Z43	X44	Y44	Z44	X45	Y45	Z45	X46	Y46	Z46	X47	Y47	Z47	X48	Y48	Z48	X49	Y49	Z49	X50	Y50	Z50	

192	0.79583	179.02	1202.6	337.13	97.383	1453.6	516.12	86.225	1491.5	185.58	75.734	1765.8	373.16	120.96	958.18	449.49	98.395	953.98	201.42	-88.32	979.58	387.95	-92.477	985.7	296.19	58.307	883.57	526.86	-18.095	888.4	140.05	38.494	1040.9	500.51	10.455	1039.7	167.36	-103.67	947.54	354.84	197.11	690.78	509.19	256.98	642.61	441.03	214.36	604.11	486.45	234.75	726.91	463.81	241.11	521.17	468.41	232.56	502.52	337.77	240.04	269.04	463.21	318.42	225.02	461.42	261.85	196.09	447.83	297.01	299	474.87	327.09	121.65	447.82	341.3	148.59	359.56	283.01	63.556	385.09	298.89	32.604	358.42	293.84	38.707	424.01	454.03	61.8	480.58	490.12	73.901	364.74	541.74	113.49	409.35	-95.092	665.45	150.31	-42.173	568.94	158.32	-114.17	572.73	163.84	-17.705	655.46	142.06	-141.64	487.52	166.9	-318.05	377.86	182.72	-308.84	289.74	183.84	-366.01	326.99	205.68	-264	342.4	167.12	-434.88	207.26	216.11	-394.72	193.97	298.63	-504.99	209.18	274.1	-511.21	186.38	308.9	-524.29	187.06	248.02	-409.59	55.999	189.32	-377.78	54.531	306.93	-329.65	37.999	253.81	37.014	1511	361.73	-86.934	1239.9	342.82
193	0.8	185.67	1203.3	338.16	103.61	1454.2	517.08	93.07	1492.3	186.61	81.905	1766.4	374.5	126.97	959.37	450.58	105.34	954.16	202.47	-82.139	980.3	387.99	-85.93	986.05	296.15	64.257	884.81	527.66	-10.792	887.95	140.65	44.213	1041.9	501.01	17.66	1039.8	167.82	-97.331	948.12	354.92	203.23	691.89	509.64	263.07	643.74	441.44	220.42	605.24	486.83	240.92	728.05	464.33	246.93	522.01	469.01	237.76	503.33	338.44	244.13	269.76	464.26	322.09	225.11	461.85	265.13	196.62	448.72	301.5	299.28	475.49	329.25	121.63	448.25	343.52	148.43	359.93	284.15	64.537	385.34	299.48	33.324	358.55	294.52	39.347	424.18	455.27	59.772	480.64	491.63	71.231	364.69	544.02	109.82	409.29	-86.139	664.29	150.35	-32.399	568.2	158.13	-104.43	571.36	163.55	-8.6446	655.02	142.3	-131.45	486.44	166.31	-309.03	379.49	182.91	-301.13	291.25	183.72	-357.61	329.29	206	-255.61	343.28	166.9	-428.34	210.95	216.45	-387.82	196.5	298.61	-497.18	215.12	274.8	-503.98	192.61	309.71	-517.41	193.65	248.84	-407.84	58.519	189.61	-375.28	56.143	306.83	-328.72	37.663	253.53	43.329	1511.6	362.68	-80.435	1240.5	342.95
194	0.80417	192.26	1204.1	339.2	109.79	1454.8	518.02	99.903	1493.2	187.62	88.072	1767	375.82	132.94	960.59	451.69	112.22	954.4	203.53	-75.992	981.03	388.03	-79.437	986.42	296.12	70.176	886.05	528.45	-3.4923	887.52	141.24	49.875	1042.9	501.53	24.801	1040	168.28	-91.032	948.72	355.01	209.31	693.02	510.12	269.14	644.88	441.9	226.45	606.38	487.24	247.07	729.19	464.89	252.74	522.86	469.63	242.96	504.17	339.13	248.13	270.49	465.37	325.65	225.21	462.3	268.31	197.18	449.66	305.91	299.57	476.15	331.28	121.61	448.69	345.61	148.31	360.33	285.21	65.451	385.61	300.02	34.022	358.7	295.15	39.939	424.36	456.39	57.865	480.72	492.98	68.751	364.64	546.08	106.36	409.25	-77.037	663.09	150.35	-22.426	567.46	157.95	-94.482	569.96	163.22	0.5678	654.58	142.54	-121	485.32	165.72	-299.7	381.13	183.1	-293.13	292.78	183.63	-348.9	331.62	206.32	-246.93	344.17	166.7	-421.48	214.73	216.82	-380.63	199.08	298.62	-489	221.12	275.56	-496.38	198.91	310.57	-510.14	200.35	249.72	-405.85	61.273	189.9	-372.49	57.93	306.71	-327.61	37.366	253.19	49.604	1512.3	363.6	-73.985	1241.2	343.05
195	0.80833	198.78	1204.9	340.25	115.9	1455.4	518.92	106.72	1494	188.6	94.234	1767.7	377.1	138.88	961.84	452.79	119.06	954.68	204.6	-69.877	981.77	388.09	-73.001	986.81	296.11	76.071	887.3	529.25	3.7943	887.09	141.81	55.492	1044	502.06	31.865	1040.2	168.76	-84.777	949.33	355.11	215.34	694.14	510.62	275.18	646	442.4	232.44	607.5	487.7	253.19	730.31	465.48	258.5	523.71	470.27	248.15	505.02	339.85	252.04	271.23	466.51	329.1	225.31	462.77	271.37	197.74	450.64	310.23	299.85	476.84	333.19	121.58	449.13	347.55	148.22	360.75	286.19	66.296	385.88	300.53	34.69	358.85	295.74	40.482	424.55	457.4	56.074	480.8	494.18	66.45	364.6	547.95	103.1	409.22	-67.796	661.87	150.3	-12.267	566.73	157.77	-84.348	568.52	162.86	9.9213	654.15	142.78	-110.31	484.17	165.13	-290.08	382.79	183.31	-284.84	294.35	183.58	-339.89	333.99	206.66	-237.97	345.07	166.53	-414.32	218.59	217.23	-373.16	201.73	298.67	-480.46	227.17	276.37	-488.39	205.25	311.46	-502.51	207.13	250.64	-403.58	64.264	190.21	-369.4	59.891	306.56	-326.28	37.125	252.79	55.836	1513	364.48	-67.586	1241.8	343.15
196	0.8125	205.23	1205.7	341.3	121.95	1456.2	519.8	113.51	1494.9	189.54	100.39	1768.4	378.35	144.78	963.1	453.9	125.82	955.01	205.67	-63.792	982.51	388.18	-66.622	987.2	296.14	81.947	888.54	530.04	11.06	886.68	142.37	61.074	1045	502.61	38.843	1040.4	169.24	-78.562	949.95	355.25	221.31	695.22	511.16	281.16	647.07	442.96	238.35	608.59	488.21	259.26	731.39	466.11	264.2	524.55	470.92	253.31	505.88	340.57	255.85	271.97	467.68	332.43	225.4	463.24	274.31	198.31	451.63	314.45	300.11	477.54	334.99	121.54	449.56	349.37	148.15	361.18	287.09	67.072	386.15	300.99	35.325	359	296.28	40.978	424.73	458.32	54.397	480.88	495.24	64.316	364.55	549.64	100.04	409.19	-58.426	660.62	150.22	-1.9371	566.02	157.61	-74.038	567.06	162.49	19.404	653.75	143.01	-99.395	483	164.56	-280.16	384.46	183.51	-276.27	295.95	183.56	-330.59	336.39	207	-228.73	345.99	166.4	-406.84	222.52	217.67	-365.41	204.44	298.76	-471.57	233.24	277.22	-480.04	211.59	312.4	-494.5	213.96	251.61	-401	67.488	190.51	-365.98	62.026	306.39	-324.68	36.957	252.31	62.025	1513.7	365.31	-61.238	1242.5	343.23
197	0.81667	211.6	1206.6	342.34	127.95	1456.9	520.65	120.26	1495.8	190.46	106.54	1769.2	379.56	150.66	964.36	454.98	132.52	955.39	206.73	-57.737	983.26	388.3	-60.301	987.61	296.2	87.806	889.76	530.82	18.299	886.28	142.91	66.631	1046.1	503.18	45.725	1040.7	169.73	-72.387	950.58	355.41	227.22	696.24	511.73	287.07	648.08	443.55	244.18	609.62	488.76	265.28	732.41	466.77	269.83	525.36	471.57	258.42	506.73	341.29	259.56	272.69	468.84	335.65	225.47	463.71	277.14	198.88	452.61	318.56	300.35	478.25	336.69	121.49	449.96	351.07	148.1	361.61	287.91	67.782	386.42	301.42	35.921	359.16	296.78	41.429	424.9	459.15	52.829	480.96	496.18	62.336	364.5	551.16	97.163	409.17	-48.937	659.37	150.11	8.5493	565.34	157.46	-63.566	565.6	162.11	29.004	653.37	143.24	-88.26	481.83	164	-269.96	386.16	183.73	-267.42	297.59	183.57	-321.01	338.82	207.36	-219.21	346.93	166.31	-399.07	226.53	218.14	-357.39	207.22	298.88	-462.35	239.31	278.12	-471.34	217.92	313.37	-486.15	220.8	252.63	-398.08	70.94	190.81	-362.2	64.329	306.17	-322.79	36.883	251.75	68.17	1514.5	366.1	-54.943	1243.3	343.32
198	0.82083	217.9	1207.5	343.38	133.88	1457.7	521.47	126.99	1496.7	191.33	112.68	1769.9	380.74	156.51	965.61	456.05	139.15	955.82	207.78	-51.71	984.01	388.46	-54.04	988.02	296.31	93.647	890.95	531.6	25.503	885.91	143.44	72.171	1047.1	503.77	52.502	1041	170.24	-66.25	951.21	355.62	233.06	697.2	512.35	292.9	648.99	444.19	249.92	610.57	489.35	271.25	733.34	467.47	275.38	526.13	472.22	263.48	507.55	342.01	263.16	273.38	469.98	338.74	225.52	464.15	279.86	199.43	453.56	322.56	300.56	478.94	338.28	121.43	450.34	352.66	148.06	362.03	288.67	68.426	386.68	301.81	36.476	359.31	297.24	41.838	425.07	459.9	51.368	481.04	497	60.499	364.45	552.52	94.462	409.14	-39.339	658.12	149.98	19.176	564.69	157.34	-52.947	564.15	161.73	38.709	653.03	143.47	-76.922	480.67	163.48	-259.49	387.88	183.97	-258.3	299.26	183.63	-311.16	341.29	207.72	-209.43	347.9	166.26	-390.99	230.59	218.64	-349.11	210.05	299.03	-452.84	245.34	279.06	-462.32	224.21	314.38	-477.46	227.63	253.68	-394.78	74.612	191.1	-358.05	66.794	305.91	-320.55	36.927	251.1	74.269	1515.3	366.85	-48.7	1244.1	343.41
199	0.825	224.13	1208.3	344.39	139.74	1458.6	522.25	133.66	1497.6	192.17	118.81	1770.7	381.88	162.33	966.85	457.1	145.71	956.3	208.8	-45.711	984.76	388.67	-47.838	988.43	296.47	99.468	892.11	532.37	32.667	885.57	143.96	77.7	1048.2	504.38	59.171	1041.3	170.76	-60.151	951.83	355.88	238.83	698.09	512.99	298.65	649.81	444.86	255.55	611.45	489.97	277.15	734.18	468.2	280.83	526.84	472.87	268.47	508.34	342.71	266.64	274.05	471.07	341.72	225.54	464.58	282.46	199.96	454.48	326.43	300.73	479.6	339.78	121.36	450.69	354.15	148.02	362.43	289.36	69.007	386.92	302.16	36.987	359.46	297.67	42.209	425.23	460.58	50.012	481.11	497.72	58.792	364.38	553.74	91.927	409.11	-29.646	656.89	149.84	29.927	564.1	157.24	-42.197	562.73	161.36	48.505	652.74	143.71	-65.395	479.52	162.99	-248.76	389.62	184.21	-248.93	300.97	183.72	-301.05	343.79	208.09	-199.4	348.9	166.25	-382.62	234.71	219.16	-340.56	212.94	299.22	-443.04	251.32	280.04	-452.98	230.42	315.42	-468.45	234.41	254.77	-391.06	78.492	191.36	-353.49	69.411	305.6	-317.92	37.11	250.37	80.322	1516.1	367.55	-42.509	1244.8	343.52
200	0.82917	230.29	1209.2	345.39	145.55	1459.5	523	140.29	1498.5	192.97	124.92	1771.6	382.98	168.14	968.05	458.12	152.19	956.82	209.81	-39.742	985.5	388.92	-41.696	988.84	296.68	105.27	893.22	533.12	39.787	885.25	144.47	83.222	1049.2	505	65.726	1041.6	171.28	-54.09	952.45	356.19	244.52	698.89	513.67	304.3	650.53	445.56	261.07	612.23	490.61	282.98	734.93	468.96	286.17	527.5	473.51	273.38	509.08	343.4	270.01	274.68	472.09	344.57	225.54	464.97	284.94	200.47	455.33	330.16	300.86	480.22	341.19	121.28	450.99	355.55	147.98	362.79	289.99	69.53	387.14	302.49	37.454	359.59	298.05	42.545	425.37	461.19	48.76	481.17	498.35	57.207	364.31	554.84	89.55	409.07	-19.866	655.69	149.69	40.787	563.56	157.18	-31.33	561.34	161.02	58.379	652.5	143.95	-53.696	478.4	162.55	-237.8	391.39	184.47	-239.31	302.72	183.85	-290.7	346.31	208.47	-189.14	349.93	166.27	-373.96	238.87	219.71	-331.77	215.89	299.43	-432.99	257.21	281.05	-443.37	236.52	316.48	-459.15	241.1	255.89	-386.9	82.562	191.6	-348.5	72.168	305.24	-314.86	37.459	249.55	86.328	1516.9	368.21	-36.371	1245.6	343.65
201	0.83333	236.37	1210.1	346.35	151.3	1460.4	523.72	146.86	1499.5	193.73	131.03	1772.4	384.03	173.93	969.23	459.1	158.6	957.39	210.78	-33.802	986.23	389.23	-35.613	989.25	296.95	111.04	894.28	533.87	46.858	884.97	144.97	88.738	1050.2	505.63	72.167	1042	171.82	-48.066	953.07	356.54	250.13	699.6	514.37	309.85	651.15	446.28	266.48	612.93	491.27	288.75	735.59	469.74	291.4	528.09	474.12	278.22	509.77	344.07	273.24	275.28	473.03	347.29	225.5	465.32	287.31	200.95	456.11	333.74	300.95	480.79	342.5	121.19	451.24	356.87	147.94	363.11	290.56	69.997	387.34	302.78	37.876	359.72	298.41	42.85	425.5	461.74	47.612	481.22	498.9	55.733	364.23	555.82	87.324	409.01	-10.013	654.53	149.56	51.737	563.1	157.15	-20.363	560	160.71	68.319	652.32	144.2	-41.84	477.33	162.16	-226.62	393.18	184.75	-229.45	304.51	184.01	-280.11	348.87	208.86	-178.65	351	166.34	-365.03	243.07	220.27	-322.74	218.9	299.66	-422.73	262.99	282.1	-433.51	242.49	317.56	-449.59	247.68	257.04	-382.26	86.806	191.79	-343.07	75.052	304.84	-311.31	37.998	248.63	92.286	1517.8	368.82	-30.283	1246.5	343.8
